<svg width="356" height="137" viewBox="0 0 356 137" fill="none" xmlns="http://www.w3.org/2000/svg">
<rect x="0.5" y="0.5" width="15" height="15" rx="3.5" fill="#18181B" stroke="#27272A"/>
<rect x="20.5" y="0.5" width="15" height="15" rx="3.5" fill="#4C1D95" stroke="#6D28D9"/>
<rect x="40.5" y="0.5" width="15" height="15" rx="3.5" fill="#5B21B6" stroke="#7C3AED"/>
<rect x="60.5" y="0.5" width="15" height="15" rx="3.5" fill="#6D28D9" stroke="#8B5CF6"/>
<rect x="80.5" y="0.5" width="15" height="15" rx="3.5" fill="#7C3AED" stroke="#A78BFA"/>
<rect x="100.5" y="0.5" width="15" height="15" rx="3.5" fill="#8B5CF6" stroke="#C4B5FD"/>
<path d="M10.9773 48.3182V63.25H2.64205V28.3409H10.7045V41.875H10.9943C11.5852 40.2614 12.5511 39 13.892 38.0909C15.2443 37.1818 16.8977 36.7273 18.8523 36.7273C20.6932 36.7273 22.2955 37.1364 23.6591 37.9545C25.0227 38.7614 26.0795 39.9034 26.8295 41.3807C27.5909 42.858 27.9659 44.5852 27.9545 46.5625V63.25H19.6193V48.1989C19.6307 46.7443 19.267 45.608 18.5284 44.7898C17.7898 43.9716 16.75 43.5625 15.4091 43.5625C14.5341 43.5625 13.7614 43.7557 13.0909 44.142C12.4318 44.517 11.9148 45.0568 11.5398 45.7614C11.1761 46.4659 10.9886 47.3182 10.9773 48.3182ZM40.5384 63.6932C38.8679 63.6932 37.3849 63.4148 36.0895 62.858C34.8054 62.2898 33.7884 61.4375 33.0384 60.3011C32.2997 59.1534 31.9304 57.7159 31.9304 55.9886C31.9304 54.5341 32.1861 53.3068 32.6974 52.3068C33.2088 51.3068 33.9134 50.4943 34.8111 49.8693C35.7088 49.2443 36.7429 48.7727 37.9134 48.4545C39.0838 48.125 40.3338 47.9034 41.6634 47.7898C43.152 47.6534 44.3509 47.5114 45.2599 47.3636C46.169 47.2045 46.8281 46.983 47.2372 46.6989C47.6577 46.4034 47.8679 45.9886 47.8679 45.4545V45.3693C47.8679 44.4943 47.5668 43.8182 46.9645 43.3409C46.3622 42.8636 45.5497 42.625 44.527 42.625C43.4247 42.625 42.5384 42.8636 41.8679 43.3409C41.1974 43.8182 40.7713 44.4773 40.5895 45.3182L32.902 45.0455C33.1293 43.4545 33.7145 42.0341 34.6577 40.7841C35.6122 39.5227 36.919 38.5341 38.5781 37.8182C40.2486 37.0909 42.2543 36.7273 44.5952 36.7273C46.2656 36.7273 47.8054 36.9261 49.2145 37.3239C50.6236 37.7102 51.8509 38.2784 52.8963 39.0284C53.9418 39.767 54.7486 40.6761 55.3168 41.7557C55.8963 42.8352 56.1861 44.0682 56.1861 45.4545V63.25H48.3452V59.6023H48.1406C47.6747 60.4886 47.0781 61.2386 46.3509 61.8523C45.6349 62.4659 44.7884 62.9261 43.8111 63.233C42.8452 63.5398 41.7543 63.6932 40.5384 63.6932ZM43.1122 58.2386C44.0099 58.2386 44.8168 58.0568 45.5327 57.6932C46.2599 57.3295 46.8395 56.8295 47.2713 56.1932C47.7031 55.5455 47.919 54.7955 47.919 53.9432V51.4545C47.6804 51.5795 47.3906 51.6932 47.0497 51.7955C46.7202 51.8977 46.3565 51.9943 45.9588 52.0852C45.5611 52.1761 45.152 52.2557 44.7315 52.3239C44.3111 52.392 43.9077 52.4545 43.5213 52.5114C42.7372 52.6364 42.0668 52.8295 41.5099 53.0909C40.9645 53.3523 40.544 53.6932 40.2486 54.1136C39.9645 54.5227 39.8224 55.0114 39.8224 55.5795C39.8224 56.4432 40.1293 57.1023 40.7429 57.5568C41.3679 58.0114 42.1577 58.2386 43.1122 58.2386ZM61.2827 63.25V28.3409H69.6179V41.5511H69.7884C70.1293 40.7557 70.6122 39.9886 71.2372 39.25C71.8736 38.5114 72.6804 37.9091 73.6577 37.4432C74.6463 36.9659 75.8281 36.7273 77.2031 36.7273C79.0213 36.7273 80.7202 37.2045 82.2997 38.1591C83.8906 39.1136 85.1747 40.5852 86.152 42.5739C87.1293 44.5625 87.6179 47.0966 87.6179 50.1761C87.6179 53.142 87.1463 55.625 86.2031 57.625C85.2713 59.625 84.0099 61.125 82.419 62.125C80.8395 63.125 79.0838 63.625 77.152 63.625C75.8338 63.625 74.6918 63.4091 73.7259 62.9773C72.7599 62.5455 71.9474 61.9773 71.2884 61.2727C70.6406 60.5682 70.1406 59.8125 69.7884 59.0057H69.5327V63.25H61.2827ZM69.4474 50.1591C69.4474 51.5682 69.6349 52.7955 70.0099 53.8409C70.3963 54.8864 70.9474 55.6989 71.6634 56.2784C72.3906 56.8466 73.2599 57.1307 74.2713 57.1307C75.294 57.1307 76.1634 56.8466 76.8793 56.2784C77.5952 55.6989 78.1349 54.8864 78.4986 53.8409C78.8736 52.7955 79.0611 51.5682 79.0611 50.1591C79.0611 48.75 78.8736 47.5284 78.4986 46.4943C78.1349 45.4602 77.5952 44.6591 76.8793 44.0909C76.1747 43.5227 75.3054 43.2386 74.2713 43.2386C73.2486 43.2386 72.3793 43.517 71.6634 44.0739C70.9474 44.6307 70.3963 45.4261 70.0099 46.4602C69.6349 47.4943 69.4474 48.7273 69.4474 50.1591ZM91.9858 63.25V37.0682H100.321V63.25H91.9858ZM96.1619 34.017C94.9915 34.017 93.9858 33.6307 93.1449 32.858C92.304 32.0739 91.8835 31.1307 91.8835 30.0284C91.8835 28.9375 92.304 28.0057 93.1449 27.233C93.9858 26.4489 94.9915 26.0568 96.1619 26.0568C97.3438 26.0568 98.3494 26.4489 99.179 27.233C100.02 28.0057 100.44 28.9375 100.44 30.0284C100.44 31.1307 100.02 32.0739 99.179 32.858C98.3494 33.6307 97.3438 34.017 96.1619 34.017ZM120.405 37.0682V43.2045H103.888V37.0682H120.405ZM107.348 30.7955H115.683V55.017C115.683 55.5284 115.763 55.9432 115.922 56.2614C116.092 56.5682 116.337 56.7898 116.655 56.9261C116.973 57.0511 117.354 57.1136 117.797 57.1136C118.115 57.1136 118.45 57.0852 118.803 57.0284C119.166 56.9602 119.439 56.9034 119.621 56.858L120.882 62.875C120.484 62.9886 119.922 63.1307 119.195 63.3011C118.479 63.4716 117.621 63.5795 116.621 63.625C114.666 63.7159 112.99 63.4886 111.592 62.9432C110.206 62.3864 109.143 61.5227 108.405 60.3523C107.678 59.1818 107.325 57.7102 107.348 55.9375V30.7955ZM147.188 45.0625L139.534 45.267C139.455 44.7216 139.239 44.2386 138.886 43.8182C138.534 43.3864 138.074 43.0511 137.506 42.8125C136.949 42.5625 136.301 42.4375 135.562 42.4375C134.597 42.4375 133.773 42.6307 133.091 43.017C132.42 43.4034 132.091 43.9261 132.102 44.5852C132.091 45.0966 132.295 45.5398 132.716 45.9148C133.148 46.2898 133.915 46.5909 135.017 46.8182L140.062 47.7727C142.676 48.2727 144.619 49.1023 145.892 50.2614C147.176 51.4205 147.824 52.9545 147.835 54.8636C147.824 56.6591 147.29 58.2216 146.233 59.5511C145.188 60.8807 143.756 61.9148 141.938 62.6534C140.119 63.3807 138.04 63.7443 135.699 63.7443C131.96 63.7443 129.011 62.9773 126.852 61.4432C124.705 59.8977 123.477 57.8295 123.17 55.2386L131.403 55.0341C131.585 55.9886 132.057 56.7159 132.818 57.2159C133.58 57.7159 134.551 57.9659 135.733 57.9659C136.801 57.9659 137.67 57.767 138.341 57.3693C139.011 56.9716 139.352 56.4432 139.364 55.7841C139.352 55.1932 139.091 54.7216 138.58 54.3693C138.068 54.0057 137.267 53.7216 136.176 53.517L131.608 52.6477C128.983 52.1705 127.028 51.2898 125.744 50.0057C124.46 48.7102 123.824 47.0625 123.835 45.0625C123.824 43.3125 124.29 41.8182 125.233 40.5795C126.176 39.3295 127.517 38.375 129.256 37.7159C130.994 37.0568 133.045 36.7273 135.409 36.7273C138.955 36.7273 141.75 37.4716 143.795 38.9602C145.841 40.4375 146.972 42.4716 147.188 45.0625ZM12.2045 123.625C10.2727 123.625 8.51705 123.125 6.9375 122.125C5.35795 121.125 4.09659 119.625 3.15341 117.625C2.21023 115.625 1.73864 113.142 1.73864 110.176C1.73864 107.097 2.22727 104.562 3.20455 102.574C4.18182 100.585 5.46023 99.1136 7.03977 98.1591C8.63068 97.2045 10.3409 96.7273 12.1705 96.7273C13.5455 96.7273 14.7216 96.9659 15.6989 97.4432C16.6761 97.9091 17.483 98.5114 18.1193 99.25C18.7557 99.9886 19.2386 100.756 19.5682 101.551H19.7386V88.3409H28.0739V123.25H19.8239V119.006H19.5682C19.2159 119.812 18.7159 120.568 18.0682 121.273C17.4205 121.977 16.608 122.545 15.6307 122.977C14.6648 123.409 13.5227 123.625 12.2045 123.625ZM15.1023 117.131C16.1136 117.131 16.9773 116.847 17.6932 116.278C18.4091 115.699 18.9602 114.886 19.3466 113.841C19.733 112.795 19.9261 111.568 19.9261 110.159C19.9261 108.727 19.733 107.494 19.3466 106.46C18.9716 105.426 18.4205 104.631 17.6932 104.074C16.9773 103.517 16.1136 103.239 15.1023 103.239C14.0682 103.239 13.1932 103.523 12.4773 104.091C11.7614 104.659 11.2159 105.46 10.8409 106.494C10.4773 107.528 10.2955 108.75 10.2955 110.159C10.2955 111.568 10.483 112.795 10.858 113.841C11.233 114.886 11.7727 115.699 12.4773 116.278C13.1932 116.847 14.0682 117.131 15.1023 117.131ZM40.7259 123.693C39.0554 123.693 37.5724 123.415 36.277 122.858C34.9929 122.29 33.9759 121.437 33.2259 120.301C32.4872 119.153 32.1179 117.716 32.1179 115.989C32.1179 114.534 32.3736 113.307 32.8849 112.307C33.3963 111.307 34.1009 110.494 34.9986 109.869C35.8963 109.244 36.9304 108.773 38.1009 108.455C39.2713 108.125 40.5213 107.903 41.8509 107.79C43.3395 107.653 44.5384 107.511 45.4474 107.364C46.3565 107.205 47.0156 106.983 47.4247 106.699C47.8452 106.403 48.0554 105.989 48.0554 105.455V105.369C48.0554 104.494 47.7543 103.818 47.152 103.341C46.5497 102.864 45.7372 102.625 44.7145 102.625C43.6122 102.625 42.7259 102.864 42.0554 103.341C41.3849 103.818 40.9588 104.477 40.777 105.318L33.0895 105.045C33.3168 103.455 33.902 102.034 34.8452 100.784C35.7997 99.5227 37.1065 98.5341 38.7656 97.8182C40.4361 97.0909 42.4418 96.7273 44.7827 96.7273C46.4531 96.7273 47.9929 96.9261 49.402 97.3239C50.8111 97.7102 52.0384 98.2784 53.0838 99.0284C54.1293 99.767 54.9361 100.676 55.5043 101.756C56.0838 102.835 56.3736 104.068 56.3736 105.455V123.25H48.5327V119.602H48.3281C47.8622 120.489 47.2656 121.239 46.5384 121.852C45.8224 122.466 44.9759 122.926 43.9986 123.233C43.0327 123.54 41.9418 123.693 40.7259 123.693ZM43.2997 118.239C44.1974 118.239 45.0043 118.057 45.7202 117.693C46.4474 117.33 47.027 116.83 47.4588 116.193C47.8906 115.545 48.1065 114.795 48.1065 113.943V111.455C47.8679 111.58 47.5781 111.693 47.2372 111.795C46.9077 111.898 46.544 111.994 46.1463 112.085C45.7486 112.176 45.3395 112.256 44.919 112.324C44.4986 112.392 44.0952 112.455 43.7088 112.511C42.9247 112.636 42.2543 112.83 41.6974 113.091C41.152 113.352 40.7315 113.693 40.4361 114.114C40.152 114.523 40.0099 115.011 40.0099 115.58C40.0099 116.443 40.3168 117.102 40.9304 117.557C41.5554 118.011 42.3452 118.239 43.2997 118.239ZM128.459 123.744C125.72 123.744 123.357 123.205 121.368 122.125C119.391 121.034 117.868 119.483 116.8 117.472C115.743 115.449 115.214 113.045 115.214 110.261C115.214 107.557 115.749 105.193 116.817 103.17C117.885 101.136 119.391 99.5568 121.334 98.4318C123.277 97.2955 125.567 96.7273 128.203 96.7273C130.067 96.7273 131.771 97.017 133.317 97.5966C134.862 98.1761 136.197 99.0341 137.322 100.17C138.447 101.307 139.322 102.71 139.947 104.381C140.572 106.04 140.885 107.943 140.885 110.091V112.17H118.129V107.33H133.129C133.118 106.443 132.908 105.653 132.499 104.96C132.089 104.267 131.527 103.727 130.811 103.341C130.107 102.943 129.294 102.744 128.374 102.744C127.442 102.744 126.607 102.955 125.868 103.375C125.129 103.784 124.544 104.347 124.112 105.062C123.68 105.767 123.453 106.568 123.43 107.466V112.392C123.43 113.46 123.641 114.398 124.061 115.205C124.482 116 125.078 116.619 125.851 117.062C126.624 117.506 127.544 117.727 128.612 117.727C129.351 117.727 130.021 117.625 130.624 117.42C131.226 117.216 131.743 116.915 132.175 116.517C132.607 116.119 132.93 115.631 133.146 115.051L140.8 115.273C140.482 116.989 139.783 118.483 138.703 119.756C137.635 121.017 136.232 122 134.493 122.705C132.754 123.398 130.743 123.744 128.459 123.744ZM153.477 88.3409V123.25H145.142V88.3409H153.477ZM158.783 123.25V97.0682H167.118V123.25H158.783ZM162.959 94.017C161.788 94.017 160.783 93.6307 159.942 92.858C159.101 92.0739 158.68 91.1307 158.68 90.0284C158.68 88.9375 159.101 88.0057 159.942 87.233C160.783 86.4489 161.788 86.0568 162.959 86.0568C164.141 86.0568 165.146 86.4489 165.976 87.233C166.817 88.0057 167.237 88.9375 167.237 90.0284C167.237 91.1307 166.817 92.0739 165.976 92.858C165.146 93.6307 164.141 94.017 162.959 94.017Z" fill="white"/>
<path d="M71.7827 123.25V97.0682H79.7088V101.875H79.9986C80.544 100.284 81.4645 99.0284 82.7599 98.108C84.0554 97.1875 85.6009 96.7273 87.3963 96.7273C89.2145 96.7273 90.7713 97.1932 92.0668 98.125C93.3622 99.0568 94.1861 100.307 94.5384 101.875H94.8111C95.2997 100.318 96.2543 99.0739 97.6747 98.142C99.0952 97.1989 100.771 96.7273 102.703 96.7273C105.18 96.7273 107.192 97.5227 108.737 99.1136C110.283 100.693 111.055 102.864 111.055 105.625V123.25H102.72V107.534C102.72 106.227 102.385 105.233 101.714 104.551C101.044 103.858 100.175 103.511 99.1065 103.511C97.9588 103.511 97.0554 103.886 96.3963 104.636C95.7486 105.375 95.4247 106.369 95.4247 107.619V123.25H87.4134V107.449C87.4134 106.233 87.0838 105.273 86.4247 104.568C85.7656 103.864 84.8963 103.511 83.8168 103.511C83.0895 103.511 82.4474 103.687 81.8906 104.04C81.3338 104.381 80.8963 104.869 80.5781 105.506C80.2713 106.142 80.1179 106.892 80.1179 107.756V123.25H71.7827Z" fill="white"/>
<path d="M71.7827 123.25V97.0682H79.7088V101.875H79.9986C80.544 100.284 81.4645 99.0284 82.7599 98.108C84.0554 97.1875 85.6009 96.7273 87.3963 96.7273C89.2145 96.7273 90.7713 97.1932 92.0668 98.125C93.3622 99.0568 94.1861 100.307 94.5384 101.875H94.8111C95.2997 100.318 96.2543 99.0739 97.6747 98.142C99.0952 97.1989 100.771 96.7273 102.703 96.7273C105.18 96.7273 107.192 97.5227 108.737 99.1136C110.283 100.693 111.055 102.864 111.055 105.625V123.25H102.72V107.534C102.72 106.227 102.385 105.233 101.714 104.551C101.044 103.858 100.175 103.511 99.1065 103.511C97.9588 103.511 97.0554 103.886 96.3963 104.636C95.7486 105.375 95.4247 106.369 95.4247 107.619V123.25H87.4134V107.449C87.4134 106.233 87.0838 105.273 86.4247 104.568C85.7656 103.864 84.8963 103.511 83.8168 103.511C83.0895 103.511 82.4474 103.687 81.8906 104.04C81.3338 104.381 80.8963 104.869 80.5781 105.506C80.2713 106.142 80.1179 106.892 80.1179 107.756V123.25H71.7827Z" fill="#5820AF"/>
</svg>
