<svg width="356" height="77" viewBox="0 0 356 77" fill="none" xmlns="http://www.w3.org/2000/svg">
<rect x="0.5" y="0.625" width="15" height="15" rx="3.5" fill="#18181B" stroke="#27272A"/>
<rect x="20.5" y="0.625" width="15" height="15" rx="3.5" fill="#4C1D95" stroke="#6D28D9"/>
<rect x="40.5" y="0.625" width="15" height="15" rx="3.5" fill="#5B21B6" stroke="#7C3AED"/>
<rect x="60.5" y="0.625" width="15" height="15" rx="3.5" fill="#6D28D9" stroke="#8B5CF6"/>
<rect x="80.5" y="0.625" width="15" height="15" rx="3.5" fill="#7C3AED" stroke="#A78BFA"/>
<rect x="100.5" y="0.625" width="15" height="15" rx="3.5" fill="#8B5CF6" stroke="#C4B5FD"/>
<path d="M10.9773 48.4432V63.375H2.64205V28.4659H10.7045V42H10.9943C11.5852 40.3864 12.5511 39.125 13.892 38.2159C15.2443 37.3068 16.8977 36.8523 18.8523 36.8523C20.6932 36.8523 22.2955 37.2614 23.6591 38.0795C25.0227 38.8864 26.0795 40.0284 26.8295 41.5057C27.5909 42.983 27.9659 44.7102 27.9545 46.6875V63.375H19.6193V48.3239C19.6307 46.8693 19.267 45.733 18.5284 44.9148C17.7898 44.0966 16.75 43.6875 15.4091 43.6875C14.5341 43.6875 13.7614 43.8807 13.0909 44.267C12.4318 44.642 11.9148 45.1818 11.5398 45.8864C11.1761 46.5909 10.9886 47.4432 10.9773 48.4432ZM40.5384 63.8182C38.8679 63.8182 37.3849 63.5398 36.0895 62.983C34.8054 62.4148 33.7884 61.5625 33.0384 60.4261C32.2997 59.2784 31.9304 57.8409 31.9304 56.1136C31.9304 54.6591 32.1861 53.4318 32.6974 52.4318C33.2088 51.4318 33.9134 50.6193 34.8111 49.9943C35.7088 49.3693 36.7429 48.8977 37.9134 48.5795C39.0838 48.25 40.3338 48.0284 41.6634 47.9148C43.152 47.7784 44.3509 47.6364 45.2599 47.4886C46.169 47.3295 46.8281 47.108 47.2372 46.8239C47.6577 46.5284 47.8679 46.1136 47.8679 45.5795V45.4943C47.8679 44.6193 47.5668 43.9432 46.9645 43.4659C46.3622 42.9886 45.5497 42.75 44.527 42.75C43.4247 42.75 42.5384 42.9886 41.8679 43.4659C41.1974 43.9432 40.7713 44.6023 40.5895 45.4432L32.902 45.1705C33.1293 43.5795 33.7145 42.1591 34.6577 40.9091C35.6122 39.6477 36.919 38.6591 38.5781 37.9432C40.2486 37.2159 42.2543 36.8523 44.5952 36.8523C46.2656 36.8523 47.8054 37.0511 49.2145 37.4489C50.6236 37.8352 51.8509 38.4034 52.8963 39.1534C53.9418 39.892 54.7486 40.8011 55.3168 41.8807C55.8963 42.9602 56.1861 44.1932 56.1861 45.5795V63.375H48.3452V59.7273H48.1406C47.6747 60.6136 47.0781 61.3636 46.3509 61.9773C45.6349 62.5909 44.7884 63.0511 43.8111 63.358C42.8452 63.6648 41.7543 63.8182 40.5384 63.8182ZM43.1122 58.3636C44.0099 58.3636 44.8168 58.1818 45.5327 57.8182C46.2599 57.4545 46.8395 56.9545 47.2713 56.3182C47.7031 55.6705 47.919 54.9205 47.919 54.0682V51.5795C47.6804 51.7045 47.3906 51.8182 47.0497 51.9205C46.7202 52.0227 46.3565 52.1193 45.9588 52.2102C45.5611 52.3011 45.152 52.3807 44.7315 52.4489C44.3111 52.517 43.9077 52.5795 43.5213 52.6364C42.7372 52.7614 42.0668 52.9545 41.5099 53.2159C40.9645 53.4773 40.544 53.8182 40.2486 54.2386C39.9645 54.6477 39.8224 55.1364 39.8224 55.7045C39.8224 56.5682 40.1293 57.2273 40.7429 57.6818C41.3679 58.1364 42.1577 58.3636 43.1122 58.3636ZM61.2827 63.375V28.4659H69.6179V41.6761H69.7884C70.1293 40.8807 70.6122 40.1136 71.2372 39.375C71.8736 38.6364 72.6804 38.0341 73.6577 37.5682C74.6463 37.0909 75.8281 36.8523 77.2031 36.8523C79.0213 36.8523 80.7202 37.3295 82.2997 38.2841C83.8906 39.2386 85.1747 40.7102 86.152 42.6989C87.1293 44.6875 87.6179 47.2216 87.6179 50.3011C87.6179 53.267 87.1463 55.75 86.2031 57.75C85.2713 59.75 84.0099 61.25 82.419 62.25C80.8395 63.25 79.0838 63.75 77.152 63.75C75.8338 63.75 74.6918 63.5341 73.7259 63.1023C72.7599 62.6705 71.9474 62.1023 71.2884 61.3977C70.6406 60.6932 70.1406 59.9375 69.7884 59.1307H69.5327V63.375H61.2827ZM69.4474 50.2841C69.4474 51.6932 69.6349 52.9205 70.0099 53.9659C70.3963 55.0114 70.9474 55.8239 71.6634 56.4034C72.3906 56.9716 73.2599 57.2557 74.2713 57.2557C75.294 57.2557 76.1634 56.9716 76.8793 56.4034C77.5952 55.8239 78.1349 55.0114 78.4986 53.9659C78.8736 52.9205 79.0611 51.6932 79.0611 50.2841C79.0611 48.875 78.8736 47.6534 78.4986 46.6193C78.1349 45.5852 77.5952 44.7841 76.8793 44.2159C76.1747 43.6477 75.3054 43.3636 74.2713 43.3636C73.2486 43.3636 72.3793 43.642 71.6634 44.1989C70.9474 44.7557 70.3963 45.5511 70.0099 46.5852C69.6349 47.6193 69.4474 48.8523 69.4474 50.2841ZM91.9858 63.375V37.1932H100.321V63.375H91.9858ZM96.1619 34.142C94.9915 34.142 93.9858 33.7557 93.1449 32.983C92.304 32.1989 91.8835 31.2557 91.8835 30.1534C91.8835 29.0625 92.304 28.1307 93.1449 27.358C93.9858 26.5739 94.9915 26.1818 96.1619 26.1818C97.3438 26.1818 98.3494 26.5739 99.179 27.358C100.02 28.1307 100.44 29.0625 100.44 30.1534C100.44 31.2557 100.02 32.1989 99.179 32.983C98.3494 33.7557 97.3438 34.142 96.1619 34.142ZM120.405 37.1932V43.3295H103.888V37.1932H120.405ZM107.348 30.9205H115.683V55.142C115.683 55.6534 115.763 56.0682 115.922 56.3864C116.092 56.6932 116.337 56.9148 116.655 57.0511C116.973 57.1761 117.354 57.2386 117.797 57.2386C118.115 57.2386 118.45 57.2102 118.803 57.1534C119.166 57.0852 119.439 57.0284 119.621 56.983L120.882 63C120.484 63.1136 119.922 63.2557 119.195 63.4261C118.479 63.5966 117.621 63.7045 116.621 63.75C114.666 63.8409 112.99 63.6136 111.592 63.0682C110.206 62.5114 109.143 61.6477 108.405 60.4773C107.678 59.3068 107.325 57.8352 107.348 56.0625V30.9205ZM147.188 45.1875L139.534 45.392C139.455 44.8466 139.239 44.3636 138.886 43.9432C138.534 43.5114 138.074 43.1761 137.506 42.9375C136.949 42.6875 136.301 42.5625 135.562 42.5625C134.597 42.5625 133.773 42.7557 133.091 43.142C132.42 43.5284 132.091 44.0511 132.102 44.7102C132.091 45.2216 132.295 45.6648 132.716 46.0398C133.148 46.4148 133.915 46.7159 135.017 46.9432L140.062 47.8977C142.676 48.3977 144.619 49.2273 145.892 50.3864C147.176 51.5455 147.824 53.0795 147.835 54.9886C147.824 56.7841 147.29 58.3466 146.233 59.6761C145.188 61.0057 143.756 62.0398 141.938 62.7784C140.119 63.5057 138.04 63.8693 135.699 63.8693C131.96 63.8693 129.011 63.1023 126.852 61.5682C124.705 60.0227 123.477 57.9545 123.17 55.3636L131.403 55.1591C131.585 56.1136 132.057 56.8409 132.818 57.3409C133.58 57.8409 134.551 58.0909 135.733 58.0909C136.801 58.0909 137.67 57.892 138.341 57.4943C139.011 57.0966 139.352 56.5682 139.364 55.9091C139.352 55.3182 139.091 54.8466 138.58 54.4943C138.068 54.1307 137.267 53.8466 136.176 53.642L131.608 52.7727C128.983 52.2955 127.028 51.4148 125.744 50.1307C124.46 48.8352 123.824 47.1875 123.835 45.1875C123.824 43.4375 124.29 41.9432 125.233 40.7045C126.176 39.4545 127.517 38.5 129.256 37.8409C130.994 37.1818 133.045 36.8523 135.409 36.8523C138.955 36.8523 141.75 37.5966 143.795 39.0852C145.841 40.5625 146.972 42.5966 147.188 45.1875ZM171.814 63.75C169.882 63.75 168.126 63.25 166.547 62.25C164.967 61.25 163.706 59.75 162.763 57.75C161.82 55.75 161.348 53.267 161.348 50.3011C161.348 47.2216 161.837 44.6875 162.814 42.6989C163.791 40.7102 165.07 39.2386 166.649 38.2841C168.24 37.3295 169.95 36.8523 171.78 36.8523C173.155 36.8523 174.331 37.0909 175.308 37.5682C176.286 38.0341 177.092 38.6364 177.729 39.375C178.365 40.1136 178.848 40.8807 179.178 41.6761H179.348V28.4659H187.683V63.375H179.433V59.1307H179.178C178.825 59.9375 178.325 60.6932 177.678 61.3977C177.03 62.1023 176.217 62.6705 175.24 63.1023C174.274 63.5341 173.132 63.75 171.814 63.75ZM174.712 57.2557C175.723 57.2557 176.587 56.9716 177.303 56.4034C178.018 55.8239 178.57 55.0114 178.956 53.9659C179.342 52.9205 179.536 51.6932 179.536 50.2841C179.536 48.8523 179.342 47.6193 178.956 46.5852C178.581 45.5511 178.03 44.7557 177.303 44.1989C176.587 43.642 175.723 43.3636 174.712 43.3636C173.678 43.3636 172.803 43.6477 172.087 44.2159C171.371 44.7841 170.825 45.5852 170.45 46.6193C170.087 47.6534 169.905 48.875 169.905 50.2841C169.905 51.6932 170.092 52.9205 170.467 53.9659C170.842 55.0114 171.382 55.8239 172.087 56.4034C172.803 56.9716 173.678 57.2557 174.712 57.2557ZM200.335 63.8182C198.665 63.8182 197.182 63.5398 195.886 62.983C194.602 62.4148 193.585 61.5625 192.835 60.4261C192.097 59.2784 191.727 57.8409 191.727 56.1136C191.727 54.6591 191.983 53.4318 192.494 52.4318C193.006 51.4318 193.71 50.6193 194.608 49.9943C195.506 49.3693 196.54 48.8977 197.71 48.5795C198.881 48.25 200.131 48.0284 201.46 47.9148C202.949 47.7784 204.148 47.6364 205.057 47.4886C205.966 47.3295 206.625 47.108 207.034 46.8239C207.455 46.5284 207.665 46.1136 207.665 45.5795V45.4943C207.665 44.6193 207.364 43.9432 206.761 43.4659C206.159 42.9886 205.347 42.75 204.324 42.75C203.222 42.75 202.335 42.9886 201.665 43.4659C200.994 43.9432 200.568 44.6023 200.386 45.4432L192.699 45.1705C192.926 43.5795 193.511 42.1591 194.455 40.9091C195.409 39.6477 196.716 38.6591 198.375 37.9432C200.045 37.2159 202.051 36.8523 204.392 36.8523C206.063 36.8523 207.602 37.0511 209.011 37.4489C210.42 37.8352 211.648 38.4034 212.693 39.1534C213.739 39.892 214.545 40.8011 215.114 41.8807C215.693 42.9602 215.983 44.1932 215.983 45.5795V63.375H208.142V59.7273H207.938C207.472 60.6136 206.875 61.3636 206.148 61.9773C205.432 62.5909 204.585 63.0511 203.608 63.358C202.642 63.6648 201.551 63.8182 200.335 63.8182ZM202.909 58.3636C203.807 58.3636 204.614 58.1818 205.33 57.8182C206.057 57.4545 206.636 56.9545 207.068 56.3182C207.5 55.6705 207.716 54.9205 207.716 54.0682V51.5795C207.477 51.7045 207.188 51.8182 206.847 51.9205C206.517 52.0227 206.153 52.1193 205.756 52.2102C205.358 52.3011 204.949 52.3807 204.528 52.4489C204.108 52.517 203.705 52.5795 203.318 52.6364C202.534 52.7614 201.864 52.9545 201.307 53.2159C200.761 53.4773 200.341 53.8182 200.045 54.2386C199.761 54.6477 199.619 55.1364 199.619 55.7045C199.619 56.5682 199.926 57.2273 200.54 57.6818C201.165 58.1364 201.955 58.3636 202.909 58.3636ZM231.392 63.375V37.1932H239.318V42H239.608C240.153 40.4091 241.074 39.1534 242.369 38.233C243.665 37.3125 245.21 36.8523 247.006 36.8523C248.824 36.8523 250.381 37.3182 251.676 38.25C252.972 39.1818 253.795 40.4318 254.148 42H254.42C254.909 40.4432 255.864 39.1989 257.284 38.267C258.705 37.3239 260.381 36.8523 262.312 36.8523C264.79 36.8523 266.801 37.6477 268.347 39.2386C269.892 40.8182 270.665 42.9886 270.665 45.75V63.375H262.33V47.6591C262.33 46.3523 261.994 45.358 261.324 44.6761C260.653 43.983 259.784 43.6364 258.716 43.6364C257.568 43.6364 256.665 44.0114 256.006 44.7614C255.358 45.5 255.034 46.4943 255.034 47.7443V63.375H247.023V47.5739C247.023 46.358 246.693 45.3977 246.034 44.6932C245.375 43.9886 244.506 43.6364 243.426 43.6364C242.699 43.6364 242.057 43.8125 241.5 44.1648C240.943 44.5057 240.506 44.9943 240.188 45.6307C239.881 46.267 239.727 47.017 239.727 47.8807V63.375H231.392ZM288.068 63.8693C285.33 63.8693 282.966 63.3295 280.977 62.25C279 61.1591 277.477 59.608 276.409 57.5966C275.352 55.5739 274.824 53.1705 274.824 50.3864C274.824 47.6818 275.358 45.3182 276.426 43.2955C277.494 41.2614 279 39.6818 280.943 38.5568C282.886 37.4205 285.176 36.8523 287.812 36.8523C289.676 36.8523 291.381 37.142 292.926 37.7216C294.472 38.3011 295.807 39.1591 296.932 40.2955C298.057 41.4318 298.932 42.8352 299.557 44.5057C300.182 46.1648 300.494 48.0682 300.494 50.2159V52.2955H277.739V47.4545H292.739C292.727 46.5682 292.517 45.7784 292.108 45.0852C291.699 44.392 291.136 43.8523 290.42 43.4659C289.716 43.0682 288.903 42.8693 287.983 42.8693C287.051 42.8693 286.216 43.0795 285.477 43.5C284.739 43.9091 284.153 44.4716 283.722 45.1875C283.29 45.892 283.063 46.6932 283.04 47.5909V52.517C283.04 53.5852 283.25 54.5227 283.67 55.3295C284.091 56.125 284.688 56.7443 285.46 57.1875C286.233 57.6307 287.153 57.8523 288.222 57.8523C288.96 57.8523 289.631 57.75 290.233 57.5455C290.835 57.3409 291.352 57.0398 291.784 56.642C292.216 56.2443 292.54 55.7557 292.756 55.1761L300.409 55.3977C300.091 57.1136 299.392 58.608 298.312 59.8807C297.244 61.142 295.841 62.125 294.102 62.8295C292.364 63.5227 290.352 63.8693 288.068 63.8693ZM313.087 28.4659V63.375H304.751V28.4659H313.087ZM318.392 63.375V37.1932H326.727V63.375H318.392ZM322.568 34.142C321.398 34.142 320.392 33.7557 319.551 32.983C318.71 32.1989 318.29 31.2557 318.29 30.1534C318.29 29.0625 318.71 28.1307 319.551 27.358C320.392 26.5739 321.398 26.1818 322.568 26.1818C323.75 26.1818 324.756 26.5739 325.585 27.358C326.426 28.1307 326.847 29.0625 326.847 30.1534C326.847 31.2557 326.426 32.1989 325.585 32.983C324.756 33.7557 323.75 34.142 322.568 34.142Z" fill="white"/>
</svg>
