<svg width="325" height="39" viewBox="0 0 325 39" fill="none" xmlns="http://www.w3.org/2000/svg">
<path d="M8.97727 23.0682V38H0.642046V3.09091H8.70455V16.625H8.99432C9.58523 15.0114 10.5511 13.75 11.892 12.8409C13.2443 11.9318 14.8977 11.4773 16.8523 11.4773C18.6932 11.4773 20.2955 11.8864 21.6591 12.7045C23.0227 13.5114 24.0795 14.6534 24.8295 16.1307C25.5909 17.608 25.9659 19.3352 25.9545 21.3125V38H17.6193V22.9489C17.6307 21.4943 17.267 20.358 16.5284 19.5398C15.7898 18.7216 14.75 18.3125 13.4091 18.3125C12.5341 18.3125 11.7614 18.5057 11.0909 18.892C10.4318 19.267 9.91477 19.8068 9.53977 20.5114C9.17614 21.2159 8.98864 22.0682 8.97727 23.0682ZM38.5384 38.4432C36.8679 38.4432 35.3849 38.1648 34.0895 37.608C32.8054 37.0398 31.7884 36.1875 31.0384 35.0511C30.2997 33.9034 29.9304 32.4659 29.9304 30.7386C29.9304 29.2841 30.1861 28.0568 30.6974 27.0568C31.2088 26.0568 31.9134 25.2443 32.8111 24.6193C33.7088 23.9943 34.7429 23.5227 35.9134 23.2045C37.0838 22.875 38.3338 22.6534 39.6634 22.5398C41.152 22.4034 42.3509 22.2614 43.2599 22.1136C44.169 21.9545 44.8281 21.733 45.2372 21.4489C45.6577 21.1534 45.8679 20.7386 45.8679 20.2045V20.1193C45.8679 19.2443 45.5668 18.5682 44.9645 18.0909C44.3622 17.6136 43.5497 17.375 42.527 17.375C41.4247 17.375 40.5384 17.6136 39.8679 18.0909C39.1974 18.5682 38.7713 19.2273 38.5895 20.0682L30.902 19.7955C31.1293 18.2045 31.7145 16.7841 32.6577 15.5341C33.6122 14.2727 34.919 13.2841 36.5781 12.5682C38.2486 11.8409 40.2543 11.4773 42.5952 11.4773C44.2656 11.4773 45.8054 11.6761 47.2145 12.0739C48.6236 12.4602 49.8509 13.0284 50.8963 13.7784C51.9418 14.517 52.7486 15.4261 53.3168 16.5057C53.8963 17.5852 54.1861 18.8182 54.1861 20.2045V38H46.3452V34.3523H46.1406C45.6747 35.2386 45.0781 35.9886 44.3509 36.6023C43.6349 37.2159 42.7884 37.6761 41.8111 37.983C40.8452 38.2898 39.7543 38.4432 38.5384 38.4432ZM41.1122 32.9886C42.0099 32.9886 42.8168 32.8068 43.5327 32.4432C44.2599 32.0795 44.8395 31.5795 45.2713 30.9432C45.7031 30.2955 45.919 29.5455 45.919 28.6932V26.2045C45.6804 26.3295 45.3906 26.4432 45.0497 26.5455C44.7202 26.6477 44.3565 26.7443 43.9588 26.8352C43.5611 26.9261 43.152 27.0057 42.7315 27.0739C42.3111 27.142 41.9077 27.2045 41.5213 27.2614C40.7372 27.3864 40.0668 27.5795 39.5099 27.8409C38.9645 28.1023 38.544 28.4432 38.2486 28.8636C37.9645 29.2727 37.8224 29.7614 37.8224 30.3295C37.8224 31.1932 38.1293 31.8523 38.7429 32.3068C39.3679 32.7614 40.1577 32.9886 41.1122 32.9886ZM59.2827 38V3.09091H67.6179V16.3011H67.7884C68.1293 15.5057 68.6122 14.7386 69.2372 14C69.8736 13.2614 70.6804 12.6591 71.6577 12.1932C72.6463 11.7159 73.8281 11.4773 75.2031 11.4773C77.0213 11.4773 78.7202 11.9545 80.2997 12.9091C81.8906 13.8636 83.1747 15.3352 84.152 17.3239C85.1293 19.3125 85.6179 21.8466 85.6179 24.9261C85.6179 27.892 85.1463 30.375 84.2031 32.375C83.2713 34.375 82.0099 35.875 80.419 36.875C78.8395 37.875 77.0838 38.375 75.152 38.375C73.8338 38.375 72.6918 38.1591 71.7259 37.7273C70.7599 37.2955 69.9474 36.7273 69.2884 36.0227C68.6406 35.3182 68.1406 34.5625 67.7884 33.7557H67.5327V38H59.2827ZM67.4474 24.9091C67.4474 26.3182 67.6349 27.5455 68.0099 28.5909C68.3963 29.6364 68.9474 30.4489 69.6634 31.0284C70.3906 31.5966 71.2599 31.8807 72.2713 31.8807C73.294 31.8807 74.1634 31.5966 74.8793 31.0284C75.5952 30.4489 76.1349 29.6364 76.4986 28.5909C76.8736 27.5455 77.0611 26.3182 77.0611 24.9091C77.0611 23.5 76.8736 22.2784 76.4986 21.2443C76.1349 20.2102 75.5952 19.4091 74.8793 18.8409C74.1747 18.2727 73.3054 17.9886 72.2713 17.9886C71.2486 17.9886 70.3793 18.267 69.6634 18.8239C68.9474 19.3807 68.3963 20.1761 68.0099 21.2102C67.6349 22.2443 67.4474 23.4773 67.4474 24.9091ZM89.9858 38V11.8182H98.321V38H89.9858ZM94.1619 8.76705C92.9915 8.76705 91.9858 8.38068 91.1449 7.60795C90.304 6.82386 89.8835 5.88068 89.8835 4.77841C89.8835 3.6875 90.304 2.75568 91.1449 1.98295C91.9858 1.19886 92.9915 0.806816 94.1619 0.806816C95.3438 0.806816 96.3494 1.19886 97.179 1.98295C98.0199 2.75568 98.4403 3.6875 98.4403 4.77841C98.4403 5.88068 98.0199 6.82386 97.179 7.60795C96.3494 8.38068 95.3438 8.76705 94.1619 8.76705ZM118.405 11.8182V17.9545H101.888V11.8182H118.405ZM105.348 5.54545H113.683V29.767C113.683 30.2784 113.763 30.6932 113.922 31.0114C114.092 31.3182 114.337 31.5398 114.655 31.6761C114.973 31.8011 115.354 31.8636 115.797 31.8636C116.115 31.8636 116.45 31.8352 116.803 31.7784C117.166 31.7102 117.439 31.6534 117.621 31.608L118.882 37.625C118.484 37.7386 117.922 37.8807 117.195 38.0511C116.479 38.2216 115.621 38.3295 114.621 38.375C112.666 38.4659 110.99 38.2386 109.592 37.6932C108.206 37.1364 107.143 36.2727 106.405 35.1023C105.678 33.9318 105.325 32.4602 105.348 30.6875V5.54545ZM145.188 19.8125L137.534 20.017C137.455 19.4716 137.239 18.9886 136.886 18.5682C136.534 18.1364 136.074 17.8011 135.506 17.5625C134.949 17.3125 134.301 17.1875 133.562 17.1875C132.597 17.1875 131.773 17.3807 131.091 17.767C130.42 18.1534 130.091 18.6761 130.102 19.3352C130.091 19.8466 130.295 20.2898 130.716 20.6648C131.148 21.0398 131.915 21.3409 133.017 21.5682L138.062 22.5227C140.676 23.0227 142.619 23.8523 143.892 25.0114C145.176 26.1705 145.824 27.7045 145.835 29.6136C145.824 31.4091 145.29 32.9716 144.233 34.3011C143.188 35.6307 141.756 36.6648 139.938 37.4034C138.119 38.1307 136.04 38.4943 133.699 38.4943C129.96 38.4943 127.011 37.7273 124.852 36.1932C122.705 34.6477 121.477 32.5795 121.17 29.9886L129.403 29.7841C129.585 30.7386 130.057 31.4659 130.818 31.9659C131.58 32.4659 132.551 32.7159 133.733 32.7159C134.801 32.7159 135.67 32.517 136.341 32.1193C137.011 31.7216 137.352 31.1932 137.364 30.5341C137.352 29.9432 137.091 29.4716 136.58 29.1193C136.068 28.7557 135.267 28.4716 134.176 28.267L129.608 27.3977C126.983 26.9205 125.028 26.0398 123.744 24.7557C122.46 23.4602 121.824 21.8125 121.835 19.8125C121.824 18.0625 122.29 16.5682 123.233 15.3295C124.176 14.0795 125.517 13.125 127.256 12.4659C128.994 11.8068 131.045 11.4773 133.409 11.4773C136.955 11.4773 139.75 12.2216 141.795 13.7102C143.841 15.1875 144.972 17.2216 145.188 19.8125ZM169.814 38.375C167.882 38.375 166.126 37.875 164.547 36.875C162.967 35.875 161.706 34.375 160.763 32.375C159.82 30.375 159.348 27.892 159.348 24.9261C159.348 21.8466 159.837 19.3125 160.814 17.3239C161.791 15.3352 163.07 13.8636 164.649 12.9091C166.24 11.9545 167.95 11.4773 169.78 11.4773C171.155 11.4773 172.331 11.7159 173.308 12.1932C174.286 12.6591 175.092 13.2614 175.729 14C176.365 14.7386 176.848 15.5057 177.178 16.3011H177.348V3.09091H185.683V38H177.433V33.7557H177.178C176.825 34.5625 176.325 35.3182 175.678 36.0227C175.03 36.7273 174.217 37.2955 173.24 37.7273C172.274 38.1591 171.132 38.375 169.814 38.375ZM172.712 31.8807C173.723 31.8807 174.587 31.5966 175.303 31.0284C176.018 30.4489 176.57 29.6364 176.956 28.5909C177.342 27.5455 177.536 26.3182 177.536 24.9091C177.536 23.4773 177.342 22.2443 176.956 21.2102C176.581 20.1761 176.03 19.3807 175.303 18.8239C174.587 18.267 173.723 17.9886 172.712 17.9886C171.678 17.9886 170.803 18.2727 170.087 18.8409C169.371 19.4091 168.825 20.2102 168.45 21.2443C168.087 22.2784 167.905 23.5 167.905 24.9091C167.905 26.3182 168.092 27.5455 168.467 28.5909C168.842 29.6364 169.382 30.4489 170.087 31.0284C170.803 31.5966 171.678 31.8807 172.712 31.8807ZM198.335 38.4432C196.665 38.4432 195.182 38.1648 193.886 37.608C192.602 37.0398 191.585 36.1875 190.835 35.0511C190.097 33.9034 189.727 32.4659 189.727 30.7386C189.727 29.2841 189.983 28.0568 190.494 27.0568C191.006 26.0568 191.71 25.2443 192.608 24.6193C193.506 23.9943 194.54 23.5227 195.71 23.2045C196.881 22.875 198.131 22.6534 199.46 22.5398C200.949 22.4034 202.148 22.2614 203.057 22.1136C203.966 21.9545 204.625 21.733 205.034 21.4489C205.455 21.1534 205.665 20.7386 205.665 20.2045V20.1193C205.665 19.2443 205.364 18.5682 204.761 18.0909C204.159 17.6136 203.347 17.375 202.324 17.375C201.222 17.375 200.335 17.6136 199.665 18.0909C198.994 18.5682 198.568 19.2273 198.386 20.0682L190.699 19.7955C190.926 18.2045 191.511 16.7841 192.455 15.5341C193.409 14.2727 194.716 13.2841 196.375 12.5682C198.045 11.8409 200.051 11.4773 202.392 11.4773C204.063 11.4773 205.602 11.6761 207.011 12.0739C208.42 12.4602 209.648 13.0284 210.693 13.7784C211.739 14.517 212.545 15.4261 213.114 16.5057C213.693 17.5852 213.983 18.8182 213.983 20.2045V38H206.142V34.3523H205.938C205.472 35.2386 204.875 35.9886 204.148 36.6023C203.432 37.2159 202.585 37.6761 201.608 37.983C200.642 38.2898 199.551 38.4432 198.335 38.4432ZM200.909 32.9886C201.807 32.9886 202.614 32.8068 203.33 32.4432C204.057 32.0795 204.636 31.5795 205.068 30.9432C205.5 30.2955 205.716 29.5455 205.716 28.6932V26.2045C205.477 26.3295 205.188 26.4432 204.847 26.5455C204.517 26.6477 204.153 26.7443 203.756 26.8352C203.358 26.9261 202.949 27.0057 202.528 27.0739C202.108 27.142 201.705 27.2045 201.318 27.2614C200.534 27.3864 199.864 27.5795 199.307 27.8409C198.761 28.1023 198.341 28.4432 198.045 28.8636C197.761 29.2727 197.619 29.7614 197.619 30.3295C197.619 31.1932 197.926 31.8523 198.54 32.3068C199.165 32.7614 199.955 32.9886 200.909 32.9886ZM229.392 3.09091H239.841L248.705 24.7045H249.114L257.977 3.09091H268.426V38H260.21V16.5568H259.92L251.534 37.7784H246.284L237.898 16.4375H237.608V38H229.392V3.09091ZM285.928 38.4943C283.189 38.4943 280.825 37.9545 278.837 36.875C276.859 35.7841 275.337 34.233 274.268 32.2216C273.212 30.1989 272.683 27.7955 272.683 25.0114C272.683 22.3068 273.217 19.9432 274.286 17.9205C275.354 15.8864 276.859 14.3068 278.803 13.1818C280.746 12.0455 283.036 11.4773 285.672 11.4773C287.536 11.4773 289.24 11.767 290.786 12.3466C292.331 12.9261 293.666 13.7841 294.791 14.9205C295.916 16.0568 296.791 17.4602 297.416 19.1307C298.041 20.7898 298.354 22.6932 298.354 24.8409V26.9205H275.598V22.0795H290.598C290.587 21.1932 290.376 20.4034 289.967 19.7102C289.558 19.017 288.996 18.4773 288.28 18.0909C287.575 17.6932 286.763 17.4943 285.842 17.4943C284.911 17.4943 284.075 17.7045 283.337 18.125C282.598 18.5341 282.013 19.0966 281.581 19.8125C281.149 20.517 280.922 21.3182 280.899 22.2159V27.142C280.899 28.2102 281.109 29.1477 281.53 29.9545C281.95 30.75 282.547 31.3693 283.32 31.8125C284.092 32.2557 285.013 32.4773 286.081 32.4773C286.82 32.4773 287.49 32.375 288.092 32.1705C288.695 31.9659 289.212 31.6648 289.643 31.267C290.075 30.8693 290.399 30.3807 290.615 29.8011L298.268 30.0227C297.95 31.7386 297.251 33.233 296.172 34.5057C295.104 35.767 293.7 36.75 291.962 37.4545C290.223 38.1477 288.212 38.4943 285.928 38.4943ZM310.946 3.09091V38H302.611V3.09091H310.946ZM316.251 38V11.8182H324.587V38H316.251ZM320.428 8.76705C319.257 8.76705 318.251 8.38068 317.411 7.60795C316.57 6.82386 316.149 5.88068 316.149 4.77841C316.149 3.6875 316.57 2.75568 317.411 1.98295C318.251 1.19886 319.257 0.806816 320.428 0.806816C321.609 0.806816 322.615 1.19886 323.445 1.98295C324.286 2.75568 324.706 3.6875 324.706 4.77841C324.706 5.88068 324.286 6.82386 323.445 7.60795C322.615 8.38068 321.609 8.76705 320.428 8.76705Z" fill="white"/>
</svg>
